<svg width="37" height="37" viewBox="0 0 37 37" fill="none" xmlns="http://www.w3.org/2000/svg">
<path d="M21.7745 7.69107C22.0434 6.94367 22.3147 6.1901 22.3196 6.18023C22.4491 5.8904 22.7488 5.70787 23.0646 5.73993C23.2644 5.75597 27.9917 6.16297 31.0208 8.5988C32.6044 10.0615 35.7667 18.6135 35.7667 26.0073C35.7667 26.138 35.7334 26.2651 35.668 26.3785C33.4838 30.2142 27.5292 31.2181 26.1726 31.2613C26.1639 31.2625 26.1565 31.2625 26.1491 31.2625C25.9099 31.2625 25.6854 31.1478 25.5423 30.9542L24.0747 28.9661C26.4994 28.5973 26.9372 28.1163 27.0396 28.0411C27.5872 27.6378 27.9917 27.0729 27.5009 26.36C27.1235 25.8063 26.3317 25.6237 25.7249 25.9358C25.1033 26.2256 23.4395 27.158 18.5 27.1333C13.595 27.1185 11.4416 26.0912 11.4108 26.069C10.5869 25.6977 9.94437 25.8507 9.54354 26.4007C9.06624 27.1494 9.40664 27.6563 9.95177 28.0583C10.0541 28.1336 10.302 28.3445 12.9068 28.9611L11.4577 30.953C11.3158 31.1478 11.0901 31.2613 10.8509 31.2613C10.8422 31.2613 10.8348 31.2613 10.8274 31.2601C9.46954 31.2169 3.515 30.213 1.332 26.3773C1.26664 26.2638 1.23334 26.1368 1.23334 26.0061C1.23334 18.6135 4.3956 10.0615 6.01867 8.56673C9.00827 6.1642 13.7356 5.7572 13.9354 5.73993C14.2512 5.7128 14.5509 5.89163 14.6804 6.18023C14.6853 6.1901 14.9492 6.956 15.2045 7.69477C15.2045 7.69477 17.2161 7.4 18.5 7.4C19.7839 7.4 21.7745 7.69107 21.7745 7.69107ZM23.4333 23.4333C24.7962 23.4333 25.9 21.7893 25.9 19.7592C25.9 17.7292 24.7962 16.0851 23.4333 16.0851C22.0656 15.8816 20.9963 17.7292 20.9667 19.7592C20.9667 21.7893 22.0705 23.4333 23.4333 23.4333ZM13.5667 23.4333C14.9295 23.4333 16.0333 21.7782 16.0333 19.737C16.0333 17.6959 14.9295 16.0407 13.5667 16.0407C12.2038 16.0407 11.1 17.6959 11.1 19.737C11.1 21.7782 12.2038 23.4333 13.5667 23.4333Z" fill="#FA5D7C"/>
</svg>
