<svg width="37" height="37" viewBox="0 0 37 37" fill="none" xmlns="http://www.w3.org/2000/svg">
<path d="M18.5 3.7C10.3267 3.7 3.7 10.3267 3.7 18.5C3.7 25.435 8.47546 31.2379 14.9135 32.8437C14.8444 32.6439 14.8 32.412 14.8 32.1246V29.5951C14.1994 29.5951 13.193 29.5951 12.9401 29.5951C11.9276 29.5951 11.0272 29.1597 10.5906 28.3506C10.1059 27.4515 10.0221 26.0764 8.8208 25.2352C8.46436 24.9553 8.7357 24.6358 9.1464 24.679C9.9049 24.8936 10.5339 25.4141 11.1259 26.1861C11.7154 26.9594 11.9929 27.1346 13.0943 27.1346C13.6283 27.1346 14.4275 27.1037 15.1799 26.9853C15.5844 25.958 16.2837 25.012 17.1384 24.5655C12.21 24.0586 9.85803 21.6068 9.85803 18.278C9.85803 16.8449 10.4685 15.4586 11.5058 14.2906C11.1654 13.1313 10.7374 10.767 11.6365 9.86667C13.854 9.86667 15.1947 11.3047 15.5166 11.6932C16.6216 11.3146 17.8352 11.1 19.1105 11.1C20.3882 11.1 21.6068 11.3146 22.7143 11.6957C23.0325 11.3097 24.3744 9.86667 26.5968 9.86667C27.4996 10.7682 27.0667 13.1424 26.7226 14.2993C27.7537 15.4648 28.3605 16.8473 28.3605 18.278C28.3605 21.6043 26.0122 24.0549 21.0912 24.5643C22.4454 25.271 23.4333 27.2567 23.4333 28.7527V32.1246C23.4333 32.2529 23.405 32.3454 23.3902 32.4552C29.1572 30.4337 33.3 24.9577 33.3 18.5C33.3 10.3267 26.6733 3.7 18.5 3.7Z" fill="#FA5D7C"/>
</svg>
