<svg width="37" height="37" viewBox="0 0 37 37" fill="none" xmlns="http://www.w3.org/2000/svg">
<path d="M24.6691 3.7C29.4285 3.7 33.3 7.57507 33.3 12.3357V24.6691C33.3 29.4285 29.4249 33.3 24.6643 33.3H12.3309C7.57149 33.3 3.7 29.4249 3.7 24.6643L3.7 12.3309C3.7 7.57149 7.57508 3.7 12.3357 3.7L24.6691 3.7ZM9.86667 8.63333C9.18587 8.63333 8.63334 9.18586 8.63334 9.86666C8.63334 10.5475 9.18587 11.1 9.86667 11.1C10.5475 11.1 11.1 10.5475 11.1 9.86666C11.1 9.18586 10.5475 8.63333 9.86667 8.63333ZM18.5 11.1C14.4189 11.1 11.1 14.4189 11.1 18.5C11.1 22.5811 14.4189 25.9 18.5 25.9C22.5811 25.9 25.9 22.5811 25.9 18.5C25.9 14.4189 22.5811 11.1 18.5 11.1ZM18.5 13.5667C19.8084 13.5667 21.0632 14.0864 21.9884 15.0116C22.9136 15.9368 23.4333 17.1916 23.4333 18.5C23.4333 19.8084 22.9136 21.0632 21.9884 21.9884C21.0632 22.9136 19.8084 23.4333 18.5 23.4333C17.1916 23.4333 15.9368 22.9136 15.0116 21.9884C14.0864 21.0632 13.5667 19.8084 13.5667 18.5C13.5667 17.1916 14.0864 15.9368 15.0116 15.0116C15.9368 14.0864 17.1916 13.5667 18.5 13.5667Z" fill="#FA5D7C"/>
</svg>
