<svg width="1205" height="1024" viewBox="0 0 1205 1024" fill="none" xmlns="http://www.w3.org/2000/svg">
<path d="M-77.2408 1168.92C-155.513 1253.44 -296.529 1192.3 -288.343 1077.4L-241.039 413.422C-239.706 394.706 -239.855 375.914 -241.484 357.222L-265.081 86.5741C-276.85 -48.4037 -164.078 -161.379 -29.0794 -149.854V-149.854L-9.23394 -146.473C72.554 -132.541 151.078 -184.603 170.085 -265.363L172.377 -275.105C194.06 -367.239 295.036 -416.065 380.717 -375.848V-375.848C436.914 -349.47 503.576 -360.7 548.028 -404.034L623.24 -477.351C720.509 -572.171 882.797 -538.696 934.608 -413.125V-413.125C952.976 -368.606 987.412 -332.62 1031.08 -312.31L1054.59 -301.375C1192.38 -237.289 1245.36 -68.7018 1169.01 62.6879L1143.92 105.873C1128 133.275 1120.61 164.806 1122.71 196.429L1126.35 251.192C1134.1 367.699 1000.14 438.282 908.419 366.024V366.024C880.479 344.012 844.971 333.935 809.633 337.989L700.727 350.481C644.912 356.884 604.258 406.438 608.887 462.428L615.001 536.386C619.28 588.143 563.926 623.609 518.694 598.09V598.09C474.261 573.021 419.643 606.819 422.251 657.769L430.132 811.74C433.558 878.672 372.513 930.608 306.994 916.503V916.503C251.217 904.495 196.459 940.647 185.588 996.656L174.896 1051.75C162.856 1113.78 99.4549 1151.47 39.21 1132.41V1132.41C0.189993 1120.06 -42.4497 1131.35 -70.2574 1161.38L-77.2408 1168.92Z" fill="#3D151E"/>
</svg>
