<svg width="17" height="17" viewBox="0 0 17 17" fill="none" xmlns="http://www.w3.org/2000/svg">
<path d="M8.54095 11.2803L5.22073 14.4052C4.81874 14.7704 4.28188 14.9744 3.72321 14.9744C3.16454 14.9744 2.62768 14.7704 2.22569 14.4052C2.02853 14.2204 1.87209 14.0008 1.76535 13.7589C1.65861 13.517 1.60366 13.2577 1.60366 12.9958C1.60366 12.7339 1.65861 12.4746 1.76535 12.2327C1.87209 11.9908 2.02853 11.7712 2.22569 11.5864L5.54591 8.46146C5.70705 8.3098 5.79757 8.10411 5.79757 7.88963C5.79757 7.67515 5.70705 7.46946 5.54591 7.3178C5.38477 7.16614 5.16622 7.08094 4.93834 7.08094C4.71046 7.08094 4.49191 7.16614 4.33078 7.3178L1.01055 10.4508C0.34168 11.136 -0.0200662 12.0379 0.000859781 12.9682C0.0217857 13.8985 0.423766 14.7852 1.12285 15.4432C1.82194 16.1012 2.76408 16.4795 3.75252 16.4992C4.74095 16.5189 5.69926 16.1784 6.42731 15.5489L9.75609 12.424C9.91722 12.2723 10.0078 12.0666 10.0078 11.8521C10.0078 11.6377 9.91722 11.432 9.75609 11.2803C9.59495 11.1287 9.3764 11.0435 9.14852 11.0435C8.92064 11.0435 8.70209 11.1287 8.54095 11.2803ZM15.8831 1.55121C15.1632 0.877904 14.1896 0.5 13.1747 0.5C12.1598 0.5 11.1862 0.877904 10.4663 1.55121L7.13756 4.67612C7.05778 4.75121 6.99449 4.84036 6.9513 4.93848C6.90812 5.03659 6.8859 5.14175 6.8859 5.24795C6.8859 5.35415 6.90812 5.4593 6.9513 5.55742C6.99449 5.65553 7.05778 5.74468 7.13756 5.81977C7.21735 5.89487 7.31207 5.95444 7.41632 5.99508C7.52056 6.03572 7.63229 6.05663 7.74513 6.05663C7.85796 6.05663 7.96969 6.03572 8.07394 5.99508C8.17819 5.95444 8.27291 5.89487 8.3527 5.81977L11.6729 2.69486C12.0749 2.32972 12.6118 2.12566 13.1704 2.12566C13.7291 2.12566 14.266 2.32972 14.668 2.69486C14.8651 2.87969 15.0216 3.09933 15.1283 3.3412C15.235 3.58307 15.29 3.84239 15.29 4.10429C15.29 4.36619 15.235 4.62552 15.1283 4.86739C15.0216 5.10925 14.8651 5.3289 14.668 5.51373L11.3477 8.63864C11.2675 8.71351 11.2039 8.80259 11.1604 8.90073C11.117 8.99888 11.0946 9.10415 11.0946 9.21047C11.0946 9.31679 11.117 9.42206 11.1604 9.5202C11.2039 9.61835 11.2675 9.70742 11.3477 9.7823C11.4273 9.85778 11.5219 9.9177 11.6262 9.95859C11.7305 9.99948 11.8423 10.0205 11.9553 10.0205C12.0683 10.0205 12.1801 9.99948 12.2844 9.95859C12.3887 9.9177 12.4833 9.85778 12.5629 9.7823L15.8831 6.64933C16.5985 5.97182 17 5.05544 17 4.10027C17 3.14509 16.5985 2.22872 15.8831 1.55121ZM5.73417 11.1031C5.81413 11.1778 5.90896 11.2368 6.01322 11.2769C6.11748 11.317 6.22912 11.3373 6.34174 11.3367C6.45435 11.3373 6.56599 11.317 6.67025 11.2769C6.77451 11.2368 6.86934 11.1778 6.9493 11.1031L11.1595 7.14061C11.3206 6.98896 11.4111 6.78326 11.4111 6.56879C11.4111 6.35431 11.3206 6.14862 11.1595 5.99696C10.9983 5.8453 10.7798 5.7601 10.5519 5.7601C10.324 5.7601 10.1055 5.8453 9.94435 5.99696L5.73417 9.95948C5.65396 10.0344 5.5903 10.1234 5.54686 10.2216C5.50341 10.3197 5.48105 10.425 5.48105 10.5313C5.48105 10.6376 5.50341 10.7429 5.54686 10.841C5.5903 10.9392 5.65396 11.0283 5.73417 11.1031Z" fill="#FA5D7C"/>
</svg>
